<svg xmlns="http://www.w3.org/2000/svg" xmlns:xlink="http://www.w3.org/1999/xlink" viewBox="0 0 641.73 850.35"><defs><style>.cls-1{isolation:isolate;}.cls-2{fill:url(#Áåçûìÿííûé_ãðàäèåíò_46);}.cls-3{fill:url(#Áåçûìÿííûé_ãðàäèåíò_46-2);}.cls-4{fill:url(#Áåçûìÿííûé_ãðàäèåíò_28);}.cls-5{fill:url(#Áåçûìÿííûé_ãðàäèåíò_28-2);}.cls-11,.cls-25,.cls-39,.cls-40,.cls-44,.cls-6,.cls-8{opacity:0.3;}.cls-11,.cls-14,.cls-25,.cls-27,.cls-32,.cls-39,.cls-40,.cls-43,.cls-44,.cls-47,.cls-6,.cls-8{mix-blend-mode:multiply;}.cls-6{fill:url(#Áåçûìÿííûé_ãðàäèåíò_153);}.cls-7{fill:#fff;}.cls-8{fill:url(#Áåçûìÿííûé_ãðàäèåíò_153-2);}.cls-9{fill:url(#Áåçûìÿííûé_ãðàäèåíò_46-3);}.cls-10{fill:url(#Áåçûìÿííûé_ãðàäèåíò_28-3);}.cls-11{fill:url(#Áåçûìÿííûé_ãðàäèåíò_153-3);}.cls-12{fill:url(#Áåçûìÿííûé_ãðàäèåíò_46-4);}.cls-13{fill:url(#Áåçûìÿííûé_ãðàäèåíò_28-4);}.cls-14,.cls-27,.cls-32,.cls-43,.cls-47{opacity:0.5;}.cls-14{fill:url(#Áåçûìÿííûé_ãðàäèåíò_416);}.cls-15{fill:url(#Áåçûìÿííûé_ãðàäèåíò_46-5);}.cls-16{fill:url(#Áåçûìÿííûé_ãðàäèåíò_264);}.cls-17{fill:url(#Áåçûìÿííûé_ãðàäèåíò_28-5);}.cls-18{fill:url(#Áåçûìÿííûé_ãðàäèåíò_264-2);}.cls-19{fill:url(#Áåçûìÿííûé_ãðàäèåíò_28-6);}.cls-20{fill:url(#Áåçûìÿííûé_ãðàäèåíò_6);}.cls-21{fill:url(#Áåçûìÿííûé_ãðàäèåíò_6-2);}.cls-22{fill:url(#Áåçûìÿííûé_ãðàäèåíò_46-6);}.cls-23{fill:#dfe2f3;}.cls-24{fill:url(#Áåçûìÿííûé_ãðàäèåíò_7);}.cls-25{fill:url(#Áåçûìÿííûé_ãðàäèåíò_153-4);}.cls-26{fill:url(#Áåçûìÿííûé_ãðàäèåíò_36);}.cls-27{fill:url(#Áåçûìÿííûé_ãðàäèåíò_416-2);}.cls-28{fill:url(#Áåçûìÿííûé_ãðàäèåíò_73);}.cls-29{fill:url(#Áåçûìÿííûé_ãðàäèåíò_46-7);}.cls-30{fill:url(#Áåçûìÿííûé_ãðàäèåíò_36-2);}.cls-31{fill:url(#Áåçûìÿííûé_ãðàäèåíò_46-8);}.cls-32{fill:url(#Áåçûìÿííûé_ãðàäèåíò_416-3);}.cls-33{fill:url(#Áåçûìÿííûé_ãðàäèåíò_28-7);}.cls-34{fill:url(#Áåçûìÿííûé_ãðàäèåíò_6-3);}.cls-35{fill:url(#Áåçûìÿííûé_ãðàäèåíò_6-4);}.cls-36{fill:#ea4989;}.cls-37{fill:url(#Áåçûìÿííûé_ãðàäèåíò_28-8);}.cls-38{fill:url(#Áåçûìÿííûé_ãðàäèåíò_5);}.cls-39{fill:url(#Áåçûìÿííûé_ãðàäèåíò_153-5);}.cls-40{fill:url(#Áåçûìÿííûé_ãðàäèåíò_153-6);}.cls-41{fill:url(#Áåçûìÿííûé_ãðàäèåíò_28-9);}.cls-42{fill:url(#Áåçûìÿííûé_ãðàäèåíò_4);}.cls-43{fill:url(#Áåçûìÿííûé_ãðàäèåíò_416-4);}.cls-44{fill:url(#Áåçûìÿííûé_ãðàäèåíò_153-7);}.cls-45{fill:url(#Áåçûìÿííûé_ãðàäèåíò_46-9);}.cls-46{fill:url(#Áåçûìÿííûé_ãðàäèåíò_28-10);}.cls-47{fill:url(#Áåçûìÿííûé_ãðàäèåíò_416-5);}.cls-48{fill:url(#Áåçûìÿííûé_ãðàäèåíò_46-10);}.cls-49{fill:url(#Áåçûìÿííûé_ãðàäèåíò_28-11);}.cls-50{fill:url(#Áåçûìÿííûé_ãðàäèåíò_2);}.cls-51{opacity:0.2;fill:url(#Áåçûìÿííûé_ãðàäèåíò_3);}.cls-51,.cls-52,.cls-53{mix-blend-mode:screen;}.cls-52,.cls-53{opacity:0.72;}.cls-52{fill:url(#Áåçûìÿííûé_ãðàäèåíò_134);}.cls-53{fill:url(#Áåçûìÿííûé_ãðàäèåíò_143);}.cls-54{fill:url(#Áåçûìÿííûé_ãðàäèåíò_46-11);}</style><linearGradient id="Áåçûìÿííûé_ãðàäèåíò_46" x1="566.71" y1="984.23" x2="586.76" y2="824.56" gradientUnits="userSpaceOnUse"><stop offset="0" stop-color="#cabfe0"/><stop offset="1" stop-color="#e7dbed"/></linearGradient><linearGradient id="Áåçûìÿííûé_ãðàäèåíò_46-2" x1="710.26" y1="1006.78" x2="736.12" y2="800.83" xlink:href="#Áåçûìÿííûé_ãðàäèåíò_46"/><linearGradient id="Áåçûìÿííûé_ãðàäèåíò_28" x1="583.18" y1="880.62" x2="583.18" y2="817.7" gradientUnits="userSpaceOnUse"><stop offset="0" stop-color="#b59cca"/><stop offset="1" stop-color="#938ac2"/></linearGradient><linearGradient id="Áåçûìÿííûé_ãðàäèåíò_28-2" x1="729.53" y1="882.08" x2="729.53" y2="807.24" xlink:href="#Áåçûìÿííûé_ãðàäèåíò_28"/><linearGradient id="Áåçûìÿííûé_ãðàäèåíò_153" x1="583.33" y1="986.29" x2="583.33" y2="818.22" gradientUnits="userSpaceOnUse"><stop offset="0" stop-color="#926aab"/><stop offset="1" stop-color="#cdeafc"/></linearGradient><linearGradient id="Áåçûìÿííûé_ãðàäèåíò_153-2" x1="729.85" y1="1001.92" x2="729.85" y2="806.66" xlink:href="#Áåçûìÿííûé_ãðàäèåíò_153"/><linearGradient id="Áåçûìÿííûé_ãðàäèåíò_46-3" x1="471.47" y1="838.76" x2="506.05" y2="563.48" xlink:href="#Áåçûìÿííûé_ãðàäèåíò_46"/><linearGradient id="Áåçûìÿííûé_ãðàäèåíò_28-3" x1="451.22" y1="836.12" x2="451.22" y2="792.37" xlink:href="#Áåçûìÿííûé_ãðàäèåíò_28"/><linearGradient id="Áåçûìÿííûé_ãðàäèåíò_153-3" x1="485.6" y1="833.53" x2="485.6" y2="602.23" xlink:href="#Áåçûìÿííûé_ãðàäèåíò_153"/><linearGradient id="Áåçûìÿííûé_ãðàäèåíò_46-4" x1="440.71" y1="955.23" x2="459.54" y2="805.28" xlink:href="#Áåçûìÿííûé_ãðàäèåíò_46"/><linearGradient id="Áåçûìÿííûé_ãðàäèåíò_28-4" x1="470.25" y1="954.45" x2="470.25" y2="820.31" xlink:href="#Áåçûìÿííûé_ãðàäèåíò_28"/><linearGradient id="Áåçûìÿííûé_ãðàäèåíò_416" x1="468.58" y1="912.93" x2="468.58" y2="861.06" gradientUnits="userSpaceOnUse"><stop offset="0" stop-color="#8fa3d4"/><stop offset="1" stop-color="#6e5ca4"/></linearGradient><linearGradient id="Áåçûìÿííûé_ãðàäèåíò_46-5" x1="472.06" y1="910.48" x2="483.06" y2="822.88" xlink:href="#Áåçûìÿííûé_ãðàäèåíò_46"/><linearGradient id="Áåçûìÿííûé_ãðàäèåíò_264" x1="-36.46" y1="339.77" x2="-36.46" y2="181" gradientTransform="matrix(-1, 0, 0, 1, 457.46, 0)" gradientUnits="userSpaceOnUse"><stop offset="0" stop-color="#b6abd4"/><stop offset="1" stop-color="#e0d0e8"/></linearGradient><linearGradient id="Áåçûìÿííûé_ãðàäèåíò_28-5" x1="482.56" y1="279.79" x2="482.56" y2="181" xlink:href="#Áåçûìÿííûé_ãðàäèåíò_28"/><linearGradient id="Áåçûìÿííûé_ãðàäèåíò_264-2" x1="821.42" y1="339.77" x2="821.42" y2="181" gradientTransform="matrix(1, 0, 0, 1, 0, 0)" xlink:href="#Áåçûìÿííûé_ãðàäèåíò_264"/><linearGradient id="Áåçûìÿííûé_ãðàäèåíò_28-6" x1="832.95" y1="267.3" x2="832.95" y2="180.98" xlink:href="#Áåçûìÿííûé_ãðàäèåíò_28"/><linearGradient id="Áåçûìÿííûé_ãðàäèåíò_6" x1="854.4" y1="347.36" x2="854.4" y2="191.37" gradientUnits="userSpaceOnUse"><stop offset="0" stop-color="#e72866"/><stop offset="1" stop-color="#e57da4"/></linearGradient><linearGradient id="Áåçûìÿííûé_ãðàäèåíò_6-2" x1="-3.47" y1="347.36" x2="-3.47" y2="191.37" gradientTransform="matrix(-1, 0, 0, 1, 457.46, 0)" xlink:href="#Áåçûìÿííûé_ãðàäèåíò_6"/><linearGradient id="Áåçûìÿííûé_ãðàäèåíò_46-6" x1="640.55" y1="564.97" x2="691.02" y2="163.07" xlink:href="#Áåçûìÿííûé_ãðàäèåíò_46"/><linearGradient id="Áåçûìÿííûé_ãðàäèåíò_7" x1="657.02" y1="454.79" x2="657.02" y2="173.57" gradientUnits="userSpaceOnUse"><stop offset="0" stop-color="#142032"/><stop offset="1" stop-color="#292f6b"/></linearGradient><linearGradient id="Áåçûìÿííûé_ãðàäèåíò_153-4" x1="658.4" y1="561.25" x2="658.4" y2="321.7" xlink:href="#Áåçûìÿííûé_ãðàäèåíò_153"/><linearGradient id="Áåçûìÿííûé_ãðàäèåíò_36" x1="496.94" y1="530.11" x2="809.11" y2="530.11" gradientUnits="userSpaceOnUse"><stop offset="0" stop-color="#7975b5"/><stop offset="1" stop-color="#938ac2"/></linearGradient><linearGradient id="Áåçûìÿííûé_ãðàäèåíò_416-2" x1="652.57" y1="544.02" x2="652.57" y2="499.03" xlink:href="#Áåçûìÿííûé_ãðàäèåíò_416"/><linearGradient id="Áåçûìÿííûé_ãðàäèåíò_73" x1="651.78" y1="537.65" x2="657.64" y2="491" gradientUnits="userSpaceOnUse"><stop offset="0" stop-color="#4f4797"/><stop offset="1" stop-color="#6d4c98"/></linearGradient><linearGradient id="Áåçûìÿííûé_ãðàäèåíò_46-7" x1="637.89" y1="875.55" x2="681.74" y2="526.4" xlink:href="#Áåçûìÿííûé_ãðàäèåíò_46"/><linearGradient id="Áåçûìÿííûé_ãðàäèåíò_36-2" x1="731.99" y1="605.74" x2="773.53" y2="605.74" xlink:href="#Áåçûìÿííûé_ãðàäèåíò_36"/><linearGradient id="Áåçûìÿííûé_ãðàäèåíò_46-8" x1="820.25" y1="636.68" x2="847.55" y2="419.32" xlink:href="#Áåçûìÿííûé_ãðàäèåíò_46"/><linearGradient id="Áåçûìÿííûé_ãðàäèåíò_416-3" x1="493.22" y1="505.71" x2="493.22" y2="442.58" xlink:href="#Áåçûìÿííûé_ãðàäèåíò_416"/><linearGradient id="Áåçûìÿííûé_ãðàäèåíò_28-7" x1="912.51" y1="502.95" x2="912.51" y2="424.65" xlink:href="#Áåçûìÿííûé_ãðàäèåíò_28"/><linearGradient id="Áåçûìÿííûé_ãðàäèåíò_6-3" x1="743.19" y1="313.5" x2="743.19" y2="246.07" xlink:href="#Áåçûìÿííûé_ãðàäèåíò_6"/><linearGradient id="Áåçûìÿííûé_ãðàäèåíò_6-4" x1="-9.39" y1="313.5" x2="-9.39" y2="246.07" gradientTransform="matrix(-1, 0, 0, 1, 559.96, 0)" xlink:href="#Áåçûìÿííûé_ãðàäèåíò_6"/><linearGradient id="Áåçûìÿííûé_ãðàäèåíò_28-8" x1="407.51" y1="464.46" x2="430.65" y2="280.24" xlink:href="#Áåçûìÿííûé_ãðàäèåíò_28"/><linearGradient id="Áåçûìÿííûé_ãðàäèåíò_5" x1="487.79" y1="413.31" x2="487.79" y2="361.38" gradientTransform="matrix(0.97, 0.23, -0.23, 0.97, 117.26, -48.56)" gradientUnits="userSpaceOnUse"><stop offset="0" stop-color="#d52d88"/><stop offset="1" stop-color="#e72866"/></linearGradient><linearGradient id="Áåçûìÿííûé_ãðàäèåíò_153-5" x1="857.92" y1="332.64" x2="857.92" y2="326.15" xlink:href="#Áåçûìÿííûé_ãðàäèåíò_153"/><linearGradient id="Áåçûìÿííûé_ãðàäèåíò_153-6" x1="655.72" y1="876.15" x2="655.72" y2="595.24" xlink:href="#Áåçûìÿííûé_ãðàäèåíò_153"/><linearGradient id="Áåçûìÿííûé_ãðàäèåíò_28-9" x1="653.03" y1="870.44" x2="653.03" y2="649.2" xlink:href="#Áåçûìÿííûé_ãðàäèåíò_28"/><radialGradient id="Áåçûìÿííûé_ãðàäèåíò_4" cx="657.46" cy="841.82" r="168.83" xlink:href="#Áåçûìÿííûé_ãðàäèåíò_6"/><linearGradient id="Áåçûìÿííûé_ãðàäèåíò_416-4" x1="650.87" y1="592.27" x2="650.87" y2="523.79" xlink:href="#Áåçûìÿííûé_ãðàäèåíò_416"/><linearGradient id="Áåçûìÿííûé_ãðàäèåíò_153-7" x1="835.33" y1="631.55" x2="835.33" y2="430.82" xlink:href="#Áåçûìÿííûé_ãðàäèåíò_153"/><linearGradient id="Áåçûìÿííûé_ãðàäèåíò_46-9" x1="927.83" y1="487.55" x2="948.25" y2="324.94" xlink:href="#Áåçûìÿííûé_ãðàäèåíò_46"/><linearGradient id="Áåçûìÿííûé_ãðàäèåíò_28-10" x1="925.26" y1="434.01" x2="925.26" y2="326.15" xlink:href="#Áåçûìÿííûé_ãðàäèåíò_28"/><linearGradient id="Áåçûìÿííûé_ãðàäèåíò_416-5" x1="921.83" y1="414.34" x2="921.83" y2="351.86" xlink:href="#Áåçûìÿííûé_ãðàäèåíò_416"/><linearGradient id="Áåçûìÿííûé_ãðàäèåíò_46-10" x1="897.68" y1="427.73" x2="909.06" y2="337.14" xlink:href="#Áåçûìÿííûé_ãðàäèåíò_46"/><linearGradient id="Áåçûìÿííûé_ãðàäèåíò_28-11" x1="944.97" y1="444.23" x2="944.97" y2="384.44" xlink:href="#Áåçûìÿííûé_ãðàäèåíò_28"/><linearGradient id="Áåçûìÿííûé_ãðàäèåíò_2" x1="500.55" y1="440.4" x2="500.55" y2="418.36" gradientUnits="userSpaceOnUse"><stop offset="0" stop-color="#ce74ad"/><stop offset="1" stop-color="#ef85b0"/></linearGradient><linearGradient id="Áåçûìÿííûé_ãðàäèåíò_3" x1="486.78" y1="381.15" x2="486.78" y2="276.87" gradientTransform="translate(33.12 -16.94) rotate(3.92)" gradientUnits="userSpaceOnUse"><stop offset="0" stop-color="#010101"/><stop offset="1" stop-color="#eb5d96"/></linearGradient><linearGradient id="Áåçûìÿííûé_ãðàäèåíò_134" x1="829.61" y1="230.39" x2="870.2" y2="230.39" gradientUnits="userSpaceOnUse"><stop offset="0" stop-color="#010101"/><stop offset="1" stop-color="#d5e0f4"/></linearGradient><linearGradient id="Áåçûìÿííûé_ãðàäèåíò_143" x1="440.26" y1="224.13" x2="484.99" y2="224.13" gradientUnits="userSpaceOnUse"><stop offset="0" stop-color="#d5e0f4"/><stop offset="1" stop-color="#010101"/></linearGradient><linearGradient id="Áåçûìÿííûé_ãðàäèåíò_46-11" x1="401.68" y1="336.95" x2="401.68" y2="285.4" gradientTransform="matrix(1, 0.02, -0.02, 1, 7.77, -3.6)" xlink:href="#Áåçûìÿííûé_ãðàäèåíò_46"/></defs><g class="cls-1"><g id="Camada_1" data-name="Camada 1"><path class="cls-2" d="M636.26,888.83C630.83,920.61,606.67,994,585,986.29c-4.68-1.66-9.59-7.59-14.45-16.31-14.8-26.49-29.37-78.62-36.58-113.87-3.93-19.22-5.7-33.45-4.11-35.75,9.66-14.31,101.42,47.71,106.89,54.62C637.77,876.3,637.54,881.43,636.26,888.83Z" transform="translate(-340.91 -159.54)"/><path class="cls-3" d="M781.58,845.91c-.34,3-.75,6-1.17,9.18-6.49,48.27-19.89,119.16-34.31,144.94-3.43,6.19-6.94,9.78-10.42,9.85a8.08,8.08,0,0,1-2.79-.41c-3.24-1-6.68-3.59-10.19-7.51v0c-21.86-24.54-46.54-99-47.41-121.28-.11-2.76.15-4.72.83-5.66,12.46-16.91,102.71-74.63,107.73-67.76C785.17,809.07,784.19,824.44,781.58,845.91Z" transform="translate(-340.91 -159.54)"/><path class="cls-4" d="M529.85,820.37C519.7,833.65,602.46,893.72,637.37,878,637.37,878,543.35,802.73,529.85,820.37Z" transform="translate(-340.91 -159.54)"/><path class="cls-5" d="M675.29,880.62c-2.75,6.77,92.83-8.75,108.55-73.38C783.84,807.24,701.2,816.9,675.29,880.62Z" transform="translate(-340.91 -159.54)"/><path class="cls-6" d="M566.05,876.15c-4.64,5.74,1.1,80.1,19,110.14-4.68-1.66-9.59-7.59-14.45-16.31-2.91-13-7.21-32.34-11.29-51.63-5.21-24.84-18.5-50.32-25.29-62.24-3.93-19.22-5.7-33.45-4.11-35.75,9.66-14.31,101.42,47.71,106.89,54.62,1,1.32.79,6.45-.49,13.85C636.26,888.83,570.7,870.45,566.05,876.15Z" transform="translate(-340.91 -159.54)"/><path class="cls-7" d="M727.73,903.13c-3.91,1.2-4.81,32.33,1.69,34.06S736.75,900.35,727.73,903.13Z" transform="translate(-340.91 -159.54)"/><path class="cls-8" d="M781.58,845.91s-52.27,15.48-64.35,40.28-7.55,83.64,5.47,115.73c-21.86-24.54-46.54-99-47.41-121.28-.11-2.76.15-4.72.83-5.66,12.46-16.91,102.71-74.63,107.73-67.76C785.17,809.07,784.19,824.44,781.58,845.91Z" transform="translate(-340.91 -159.54)"/><path class="cls-9" d="M555.67,602.23c-.11,27.59-4,67.49-16.49,99.72-20.72,53.37-51.86,120.56-52.81,122.68l0,0c-19,11.59-41.78,11-56.28,8.87a98.4,98.4,0,0,1-14.53-3.13S422,769.25,455.57,700c16.87-34.8,38.39-67.19,56.92-91a1.68,1.68,0,0,0,.27-.34c.19-.3.45-.6.68-.9l.37-.49a1.56,1.56,0,0,0,.34-.46c.19-.22.34-.41.49-.6,0,0,.08-.07.08-.11l.07-.08c18.84-23.89,34.13-38.39,37.34-36.61C554.05,570.41,555.75,583.47,555.67,602.23Z" transform="translate(-340.91 -159.54)"/><path class="cls-10" d="M415.81,828s24.5-40.42,49.77-35.17,20.74,31.82,20.74,31.82S454,848,415.81,828Z" transform="translate(-340.91 -159.54)"/><path class="cls-11" d="M555.67,602.23c-.11,27.59-4,67.49-16.49,99.72-20.72,53.37-51.86,120.56-52.81,122.68l0,0-56.28,8.87a98.4,98.4,0,0,1-14.53-3.13S422,769.25,455.57,700c16.87-34.8,38.39-67.19,56.92-91-10.6,14-55,75-66.92,126.76-13.59,58.92,41.22,36.23,63.64,0S555,602.23,555,602.23Z" transform="translate(-340.91 -159.54)"/><path class="cls-7" d="M494.42,696.41c-4.46-1.68,18.6-53.88,25.75-54.36S498.24,697.84,494.42,696.41Z" transform="translate(-340.91 -159.54)"/><path class="cls-7" d="M492.09,702c-3.52-1.87-6.84,7.9-3.63,9.33S496.07,704.09,492.09,702Z" transform="translate(-340.91 -159.54)"/><path class="cls-12" d="M457.42,805c-13.08-2.14-32.08,10.1-38,21.09s-9,74.28,5.94,126.58c0,0,21.09,5.71,36.91,0s26.81-51.86,27.69-86.58S479,808.54,457.42,805Z" transform="translate(-340.91 -159.54)"/><path class="cls-13" d="M455.47,954.45S436.2,843.06,480,820.31c0,0,13,22.07,8.19,65.14S475.93,950.5,455.47,954.45Z" transform="translate(-340.91 -159.54)"/><path class="cls-14" d="M452.32,892.64s11.25,16.45,18.94,19.13a19.36,19.36,0,0,0,13.7-.14l-28.42-50.57S451.39,881.15,452.32,892.64Z" transform="translate(-340.91 -159.54)"/><path class="cls-15" d="M456.54,861.06s6.24-30.86,24.87-38.39c0,0,17.32,17.08,12.93,83.44,0,0-9.67,12.74-23.3,0C471,906.11,459.62,883.48,456.54,861.06Z" transform="translate(-340.91 -159.54)"/><path class="cls-7" d="M467.2,850.18c-6.33,0,3.29,28,6.59,27.36S472.47,850.18,467.2,850.18Z" transform="translate(-340.91 -159.54)"/><path class="cls-16" d="M539.17,210s-28.63-24.71-63.68-29c0,0-10.74,5.24-23.13,43.86s10.49,114.91,10.49,114.91Z" transform="translate(-340.91 -159.54)"/><path class="cls-17" d="M461.9,200.25s5.62-13.06,13.59-19.25c0,0,28.83,26.61,27.7,90.19l-8.32,8.6Z" transform="translate(-340.91 -159.54)"/><path class="cls-18" d="M776.17,210s28.64-24.71,63.69-29c0,0,10.73,5.24,23.12,43.86s-10.49,114.91-10.49,114.91Z" transform="translate(-340.91 -159.54)"/><path class="cls-19" d="M839.86,181s-28.37,30.39-28.37,79.38l11,6.92,31.94-66.13S843.8,180.42,839.86,181Z" transform="translate(-340.91 -159.54)"/><path class="cls-20" d="M821.42,264s-7.55-41.84,20-72.59c0,0,31.11,14.66,44,69s-20.63,87-20.63,87Z" transform="translate(-340.91 -159.54)"/><path class="cls-21" d="M493.93,264s7.54-41.84-20-72.59c0,0-31.11,14.66-44,69s20.63,87,20.63,87Z" transform="translate(-340.91 -159.54)"/><path class="cls-22" d="M859.64,495.22c-63.9,89.6-364.25,83-403.35,10.49-25.52-47.33-22.72-118.49,1.85-184,32.23-86,102-162.2,194.58-162.2,108.93,0,192.62,108.52,217.83,207.64C883.31,417.35,881.12,465.09,859.64,495.22Z" transform="translate(-340.91 -159.54)"/><path class="cls-23" d="M478.7,412.1c14.31,61,278.3,67.68,343.14,12.37s-28.53-251.8-171.56-243.21C519.45,189.11,455.27,312.14,478.7,412.1Z" transform="translate(-340.91 -159.54)"/><path class="cls-24" d="M477.33,404.69c14.3,61,278.3,67.67,343.14,12.37S791.94,165.26,648.9,173.84C518.08,181.69,453.9,304.73,477.33,404.69Z" transform="translate(-340.91 -159.54)"/><path class="cls-25" d="M859.64,495.22c-63.9,89.6-364.25,83-403.35,10.49-25.52-47.33-22.72-118.49,1.85-184a0,0,0,0,1,0,0c-1.06,3.85-26.24,95.65-.53,136,26.27,41.3,130.22,35.56,241.8,30.8s148.49-21,167.21-52.46c14.76-24.76-.07-79.42-7.06-101.54l10.95,32.65C883.31,417.35,881.12,465.09,859.64,495.22Z" transform="translate(-340.91 -159.54)"/><path class="cls-26" d="M653.06,561.2c-62.43-.08-107.43-7.1-132.6-17.18h0c-16.53-6.6-24.54-14.49-23.37-22.61.72-4.94,13-9.28,32.28-12.83,56.69-10.27,174-13.36,237.27-3.78,5.43.83,10.49,1.74,15.06,2.76,1,.23,1.92.45,2.83.68l.53.11c10.91,2.68,18.64,6,22.08,10a8.29,8.29,0,0,1,1.77,3.09C814.76,541.64,709.45,561.23,653.06,561.2Z" transform="translate(-340.91 -159.54)"/><path class="cls-27" d="M808.16,516.43a7.75,7.75,0,0,1-1.06,1.89C801,527,776.19,538.1,776.19,538.1s-95.31-39-172.58-21.67S520.46,544,520.46,544h0c-16.53-6.6-24.54-14.49-23.37-22.61.72-4.94,13-9.28,32.28-12.83,56.69-10.27,174-13.36,237.27-3.78,6.6,1.17,12.61,2.34,17.89,3.44l.53.11C800,511.6,808.87,514.47,808.16,516.43Z" transform="translate(-340.91 -159.54)"/><path class="cls-28" d="M781.66,507.56c-14.76,14.12-85.53,26.31-125.88,26.27-72.33-.11-116.26-11.51-126.45-25.25C590.89,497.44,724.06,494.73,781.66,507.56Z" transform="translate(-340.91 -159.54)"/><path class="cls-29" d="M777.13,790.35c-8.72,51.49-54.81,85.8-120.9,85.8-57.53,0-106.26-21.44-119.13-68.66S529.21,673,546.39,618.68a174.4,174.4,0,0,1,9.25-23.36l0-.08a160.3,160.3,0,0,1,10.87-19.13.12.12,0,0,0,0-.08c21-31.59,51.71-52.24,86.44-52.24,36.16,0,63.83,14.87,82.66,36.88a120.82,120.82,0,0,1,20.54,34.53,343,343,0,0,1,14.19,45.49,2.69,2.69,0,0,0,.08.45C782.38,690.51,784.91,744.38,777.13,790.35Z" transform="translate(-340.91 -159.54)"/><path class="cls-30" d="M732,556.57s5.64,61.15,41.54,98.35C773.53,654.92,763.59,597.91,732,556.57Z" transform="translate(-340.91 -159.54)"/><path class="cls-31" d="M935,481.85c-56.28,111.58-155.55,149.7-155.55,149.7-27.29-17.66-51.07-75.34-41.67-86.59l0,0a4.74,4.74,0,0,1,1.7-1.32c121.09-57.94,157.32-118,157.32-118,16.35,1.17,25.71,10.72,31,21.67C935.66,463.13,935,481.85,935,481.85Z" transform="translate(-340.91 -159.54)"/><path class="cls-32" d="M456.29,505.71S469,490.91,493.86,479s47.75-21.25,51.29-30.83-68.26-3.93-68.26-3.93l-35.73,15.51S446.76,488.56,456.29,505.71Z" transform="translate(-340.91 -159.54)"/><path class="cls-33" d="M896.84,425.59c-10.08,2.69-9.06,69.61,3.81,76.29s34.33-20,34.33-20S932.6,416.05,896.84,425.59Z" transform="translate(-340.91 -159.54)"/><path class="cls-34" d="M705.64,305.92c9.54,16.8,72.73,1.86,76.29-8.11,4.77-13.35-12.88-55.31-46.25-51.49S701,297.77,705.64,305.92Z" transform="translate(-340.91 -159.54)"/><path class="cls-35" d="M606.91,305.92c-9.54,16.8-72.73,1.86-76.29-8.11-4.77-13.35,12.88-55.31,46.25-51.49S611.53,297.77,606.91,305.92Z" transform="translate(-340.91 -159.54)"/><path class="cls-36" d="M589.31,336.91s18,18.59,69.08,18.59,77.29-21.45,77.29-21.45-22.51,30.51-77.29,30.51S589.31,336.91,589.31,336.91Z" transform="translate(-340.91 -159.54)"/><path class="cls-37" d="M427,279.79s18.53,11.92,6.38,39.52c0,0-86.52,47.13-81.52,98.48,4.18,42.85,123.73,22.1,123.73,22.1l4.29,14.31s-101.55,19.87-136.6-4c0,0-11.92-28.3,17.64-79.32S427,279.79,427,279.79Z" transform="translate(-340.91 -159.54)"/><path class="cls-38" d="M460.46,435.92c-10.89,12.33,12.23,25.81,31.23,27.88,21.33,2.32,59.21-6.12,56.92-27.6S486,407,460.46,435.92Z" transform="translate(-340.91 -159.54)"/><path class="cls-39" d="M859,332.64l-2.15-6.49C857.26,327.4,858.06,329.62,859,332.64Z" transform="translate(-340.91 -159.54)"/><path class="cls-40" d="M777.13,790.35c-8.72,51.49-54.81,85.8-120.9,85.8-57.53,0-106.26-21.44-119.13-68.66S529.21,673,546.39,618.68a174.4,174.4,0,0,1,9.25-23.36l0-.08s-34.8,115.39-7,188.88,157.44,72,201.3,23.1c41.75-46.46,22.46-155.62,20.5-166.08C782.38,690.51,784.91,744.38,777.13,790.35Z" transform="translate(-340.91 -159.54)"/><path class="cls-41" d="M539.58,759.8c9.83-69.09,65.26-115.93,126.82-110.12,66.36,6.27,102,69.61,101.08,124S726.8,870.44,655.6,870.44,530.38,824.42,539.58,759.8Z" transform="translate(-340.91 -159.54)"/><path class="cls-42" d="M540.2,765.52C550,696.43,605.46,649.59,667,655.4c66.36,6.27,102,69.62,101.08,124s-40.68,96.79-111.88,96.79S531,830.14,540.2,765.52Z" transform="translate(-340.91 -159.54)"/><path class="cls-43" d="M735.68,560.67c-14.07,22.08-91.57,34.93-136.36,30.84-39-3.56-33.08-14.08-32.78-15.4a.12.12,0,0,0,0-.08c21-31.59,51.71-52.24,86.44-52.24C689.18,523.79,716.85,538.66,735.68,560.67Z" transform="translate(-340.91 -159.54)"/><path class="cls-7" d="M708.14,598.94c-3.6,1.19-3.78,30.24,0,34.92s9.82,3.24,11.84-3.6S713.59,597.14,708.14,598.94Z" transform="translate(-340.91 -159.54)"/><path class="cls-7" d="M714.79,641.6c-3,.71-3.35,7.92-2,10.44s6.61,2,7.46-1.08S717.82,640.88,714.79,641.6Z" transform="translate(-340.91 -159.54)"/><path class="cls-7" d="M703.69,172.18c-6.33,1.47,46.77,29.56,48.92,26.22S721.2,168.1,703.69,172.18Z" transform="translate(-340.91 -159.54)"/><path class="cls-7" d="M805.41,193.17c-5.29,2.86-4.87,8.57,6.09,7.14s16.92-10,15.72-11.68S811.35,190,805.41,193.17Z" transform="translate(-340.91 -159.54)"/><path class="cls-44" d="M935,481.85c-56.28,111.58-155.55,149.7-155.55,149.7-27.29-17.66-51.07-75.34-41.67-86.59l0,0a13.78,13.78,0,0,1,1.7-1.32s17.71,65,69.61,47c61.58-21.41,86.77-128.42,86.77-128.42V430.82l32,16.42C935.66,463.13,935,481.85,935,481.85Z" transform="translate(-340.91 -159.54)"/><path class="cls-45" d="M893.24,444.48s-.48,35.28,19.55,41,45.05-31.69,54.35-47.19,23.36-85.36,10-102-39.09-12.4-56.26,11C920.89,347.21,894.19,414.44,893.24,444.48Z" transform="translate(-340.91 -159.54)"/><path class="cls-46" d="M894.32,434s23.24-17.66,28.48-44.84,33.39-63,33.39-63-14.79-1.37-35.3,21S894.32,434,894.32,434Z" transform="translate(-340.91 -159.54)"/><path class="cls-47" d="M917.23,351.86l17.75,6.7s-7.86,13.25-11.07,25.88-15.24,29.9-15.24,29.9Z" transform="translate(-340.91 -159.54)"/><path class="cls-48" d="M894.32,427.31s-6.09-13.35-6.92-39.09,5.27-46,8.13-49.59,12.87-3.1,17.64,2.62,8.2,34,8.2,34S915,421.11,894.32,427.31Z" transform="translate(-340.91 -159.54)"/><path class="cls-49" d="M922.8,389.17s11.93,39.32,40.65,55.06l3.69-5.94s-29.24-15.42-43.23-53.85Z" transform="translate(-340.91 -159.54)"/><path class="cls-7" d="M901.84,357.89c-2.88-.34-1.9,25,1.67,23.95S905.89,358.36,901.84,357.89Z" transform="translate(-340.91 -159.54)"/><path class="cls-50" d="M461.9,438.19c-.65,3.51,75.49,4.35,77.27-9.1S466.91,411,461.9,438.19Z" transform="translate(-340.91 -159.54)"/><path class="cls-51" d="M480.62,384.58s-3.09-20.77.56-48.66,11.14-45.9,15.6-43.37,3.77,29.84,6.41,56.75c2,20.94,6.07,40.6,6.07,40.6S490,408.32,480.62,384.58Z" transform="translate(-340.91 -159.54)"/><path class="cls-52" d="M865.14,216s-10.09-12.5-23.84-9.18-14.66,46.64-6.44,47.71,11.72-24,18-27.89,17.32-2.41,17.32-2.41Z" transform="translate(-340.91 -159.54)"/><path class="cls-53" d="M440.26,231s5.3-6,17.22-4.06,18.79,26.41,24.89,23.95,1.63-42.09-14.49-53.74C467.88,197.17,447.1,214.91,440.26,231Z" transform="translate(-340.91 -159.54)"/><path class="cls-54" d="M424.07,288.73s-42.16,47.36-39.59,50.74S426.6,293.62,424.07,288.73Z" transform="translate(-340.91 -159.54)"/></g></g></svg>